<svg width="14" height="14" viewBox="0 0 14 14" fill="none" xmlns="http://www.w3.org/2000/svg">
<path d="M5.25004 1.75018H2.33338C2.01121 1.75018 1.75004 2.01135 1.75004 2.33352V5.25018C1.75004 5.57235 2.01121 5.83352 2.33338 5.83352H5.25004C5.57221 5.83352 5.83338 5.57235 5.83338 5.25018V2.33352C5.83338 2.01135 5.57221 1.75018 5.25004 1.75018Z" fill="#EC321F"/>
<path d="M11.6666 1.75018H8.74993C8.42776 1.75018 8.1666 2.01135 8.1666 2.33352V5.25018C8.1666 5.57235 8.42776 5.83352 8.74993 5.83352H11.6666C11.9888 5.83352 12.2499 5.57235 12.2499 5.25018V2.33352C12.2499 2.01135 11.9888 1.75018 11.6666 1.75018Z" fill="#EC321F"/>
<path d="M5.25004 8.16638H2.33338C2.01121 8.16638 1.75004 8.42755 1.75004 8.74972V11.6664C1.75004 11.9885 2.01121 12.2497 2.33338 12.2497H5.25004C5.57221 12.2497 5.83338 11.9885 5.83338 11.6664V8.74972C5.83338 8.42755 5.57221 8.16638 5.25004 8.16638Z" fill="#EC321F"/>
<path d="M11.6666 8.16638H8.74993C8.42776 8.16638 8.1666 8.42755 8.1666 8.74972V11.6664C8.1666 11.9885 8.42776 12.2497 8.74993 12.2497H11.6666C11.9888 12.2497 12.2499 11.9885 12.2499 11.6664V8.74972C12.2499 8.42755 11.9888 8.16638 11.6666 8.16638Z" fill="#EC321F"/>
</svg>
