<svg width="10" height="10" viewBox="0 0 10 10" fill="none" xmlns="http://www.w3.org/2000/svg">
<path d="M8.21483 1.40236L0.933577 3.45314C0.871596 3.47009 0.816344 3.50573 0.77535 3.55521C0.734355 3.60469 0.709611 3.66561 0.704487 3.72966C0.699362 3.79371 0.714108 3.85779 0.746714 3.91316C0.779321 3.96852 0.828203 4.0125 0.886702 4.03908L4.23045 5.62111C4.29595 5.65145 4.34856 5.70405 4.37889 5.76955L5.96092 9.1133C5.98751 9.1718 6.03148 9.22068 6.08685 9.25329C6.14222 9.28589 6.20629 9.30064 6.27034 9.29551C6.33439 9.29039 6.39531 9.26565 6.44479 9.22465C6.49427 9.18366 6.52991 9.12841 6.54686 9.06642L8.59764 1.78517C8.61318 1.73204 8.61414 1.6757 8.60042 1.62207C8.5867 1.56844 8.55881 1.51948 8.51966 1.48034C8.48052 1.44119 8.43156 1.4133 8.37793 1.39958C8.3243 1.38586 8.26796 1.38682 8.21483 1.40236V1.40236Z" stroke="white" stroke-width="0.862874" stroke-linecap="round" stroke-linejoin="round"/>
<path d="M4.33203 5.66803L6.09766 3.9024" stroke="white" stroke-width="0.862874" stroke-linecap="round" stroke-linejoin="round"/>
</svg>
