<svg width="24" height="24" viewBox="0 0 24 24" fill="none" xmlns="http://www.w3.org/2000/svg">
<path d="M16.7801 4.75049C17.8942 4.75049 18.9658 5.16462 19.7888 5.90771L19.951 6.06104C20.7843 6.90506 21.2517 8.04372 21.2517 9.22998C21.2517 10.4169 20.7833 11.5557 19.949 12.3999L12.1824 20.1772C12.159 20.2004 12.1308 20.2195 12.1004 20.2319C12.07 20.2443 12.0374 20.2507 12.0047 20.2505V20.2495L11.9959 20.2505C11.9631 20.2507 11.9305 20.2443 11.9002 20.2319C11.8697 20.2195 11.8415 20.2004 11.8181 20.1772L4.05057 12.3999C3.21652 11.5558 2.74881 10.4168 2.74881 9.22998C2.74882 8.04366 3.21614 6.90507 4.04959 6.06104C4.89126 5.22174 6.03187 4.75049 7.22049 4.75049C8.40894 4.75058 9.54883 5.22189 10.3904 6.06104L11.9998 7.67041L12.5301 7.14014L13.6092 6.06006L13.6101 6.06104C14.4518 5.22191 15.5916 4.75051 16.7801 4.75049Z" stroke="black" stroke-width="1.5"/>
</svg>
