<svg width="24" height="24" viewBox="0 0 24 24" fill="none" xmlns="http://www.w3.org/2000/svg">
<path d="M12.8711 6.32596C14.071 6.52705 15.1609 7.09377 16.0311 7.96214C16.9012 8.8305 17.4645 9.91824 17.6706 11.1157M13.0543 2.40002C15.1884 2.76108 17.1348 3.77113 18.6828 5.31133C20.2307 6.85611 21.2382 8.7985 21.6 10.9283M19.933 19.4017C19.933 19.4017 18.7743 20.5397 18.4904 20.8733C18.0278 21.3669 17.4828 21.6 16.7684 21.6C16.6997 21.6 16.6264 21.6 16.5577 21.5954C15.1976 21.5086 13.9336 20.9785 12.9856 20.526C10.3935 19.2737 8.11736 17.4959 6.22594 15.2427C4.66427 13.3643 3.6201 11.6275 2.92856 9.76284C2.50265 8.62482 2.34694 7.73818 2.41564 6.90181C2.46143 6.36708 2.66752 5.92375 3.04763 5.54442L4.60931 3.98593C4.83372 3.77569 5.07186 3.66144 5.30542 3.66144C5.59395 3.66144 5.82751 3.83511 5.97406 3.98136C5.97864 3.98593 5.98322 3.9905 5.9878 3.99507C6.26716 4.25558 6.53278 4.52523 6.81214 4.81316C6.95412 4.95941 7.10067 5.10566 7.24722 5.25648L8.49747 6.50419C8.98292 6.98864 8.98292 7.43654 8.49747 7.92099C8.36466 8.05353 8.23643 8.18607 8.10362 8.31404C7.71892 8.70709 8.02112 8.40551 7.62269 8.76199C7.61353 8.77113 7.60437 8.7757 7.59979 8.78485C7.20594 9.17789 7.27921 9.5618 7.36165 9.82231C7.36623 9.83602 7.37081 9.84973 7.37539 9.86345C7.70055 10.6495 8.15852 11.3899 8.85463 12.272L8.85921 12.2766C10.1232 13.8305 11.4559 15.0416 12.926 15.9694C13.1137 16.0882 13.3061 16.1842 13.4893 16.2756C13.6542 16.3579 13.8099 16.4356 13.9427 16.5179C13.961 16.527 13.9793 16.5407 13.9976 16.5499C14.1533 16.6275 14.2999 16.6641 14.451 16.6641C14.8311 16.6641 15.0693 16.4265 15.1471 16.3488L16.0448 15.4529C16.2005 15.2975 16.4478 15.1101 16.7363 15.1101C17.0203 15.1101 17.2539 15.2884 17.3958 15.4438C17.4004 15.4483 17.4004 15.4483 17.405 15.4529L19.9284 17.9712C20.4001 18.4373 19.933 19.4017 19.933 19.4017Z" stroke="black" stroke-width="1.5" stroke-linecap="round" stroke-linejoin="round"/>
</svg>
